<svg xmlns="http://www.w3.org/2000/svg" viewBox="0 0 256 256" role="img" aria-label="TMDB Auto Subscribe">
  <rect width="256" height="256" rx="52" fill="#061c3e"/>
  <rect x="47" y="72" width="162" height="138" rx="25" fill="#0a4d7c"/>
  <path d="M51 72l112-40c7-2 14 1 17 8l8 22L57 109z" fill="#e8f3fb"/>
  <path d="M70 65l19-7 17 17-20 7zm38-14l20-7 17 17-20 7zm39-14l17-6c7-2 14 1 17 8l2 6-19 7z" fill="#17446e"/>
  <rect x="47" y="91" width="162" height="28" rx="7" fill="#edf7fc"/>
  <path d="M60 91h24l-21 28H47V108zm48 0h25l-21 28H87zm49 0h25l-21 28h-25zm49 0h3v20l-6 8h-19z" fill="#173f69"/>
  <circle cx="59" cy="86" r="9" fill="#143a63"/>
  <circle cx="59" cy="86" r="3" fill="#d8eef9"/>
  <path d="M83 163a46 46 0 0 1 77-28" fill="none" stroke="#22e1df" stroke-width="13" stroke-linecap="round"/>
  <path d="M151 125l18 2-2 19z" fill="#22e1df"/>
  <path d="M173 161a46 46 0 0 1-78 31" fill="none" stroke="#22e1df" stroke-width="13" stroke-linecap="round"/>
  <path d="M104 201l-19-1 3-20z" fill="#22e1df"/>
  <path d="M198 46l4 13 13 4-13 4-4 13-4-13-13-4 13-4z" fill="#ffd447"/>
  <path d="M198 34v8m0 42v8m-29-29h8m42 0h8m-49-20l6 6m28 28l6 6m0-40l-6 6m-28 28l-6 6" fill="none" stroke="#ffd447" stroke-width="4" stroke-linecap="round"/>
</svg>
